<svg width="661" height="330" viewBox="0 0 661 330" fill="none" xmlns="http://www.w3.org/2000/svg">
<path d="M67.71 153.9C130.62 210.33 193.34 225.75 146.25 329.98C146.25 329.98 217.59 255.07 194.41 206.91C171.22 158.75 23.18 110.6 0 0.00976562C0 0.00976562 4.79999 97.4598 67.71 153.89V153.9Z" fill="white"/>
<path d="M296.08 165L296.05 164.98L272.28 154.38C252.28 145.45 228.66 152.78 217.5 171.64C211.53 181.71 205.92 195.03 202.18 212.48C201.4 209.81 200.47 207.17 199.23 204.6C190.09 185.61 163.92 167.38 133.6 146.26C128.62 142.79 123.5 139.21 118.34 135.55L123.07 128.44C123.15 128.32 123.22 128.19 123.3 128.06C125.29 124.93 127.44 121.9 129.65 118.93C133.95 113.16 138.57 107.61 143.5 102.37C149.54 95.9398 156.08 89.9498 163.24 84.7898C170.56 79.5398 178.61 75.1098 187.31 72.6298C196.06 70.1398 205.33 69.8398 214.13 72.2998C220.64 74.1198 226.7 77.3398 232.12 81.3598C238.71 86.2398 244.99 92.3898 249.92 98.9398C255.08 105.79 258.94 113.49 263.3 120.85C269.96 132.11 278.18 142.07 286.2 152.35C289.49 156.57 292.78 160.78 296.08 165Z" fill="white"/>
<path d="M244.38 247.62C240.6 245.52 237.67 242.61 235.6 238.88C233.53 235.16 232.49 230.89 232.49 226.07C232.49 219.35 233.99 213.3 236.98 207.93C239.98 202.55 244.12 198.34 249.41 195.29C254.7 192.24 260.65 190.71 267.26 190.71C272.24 190.71 276.63 191.75 280.41 193.82C284.19 195.89 287.12 198.79 289.19 202.51C291.26 206.23 292.3 210.48 292.3 215.24C292.3 222.07 290.82 228.18 287.85 233.55C284.88 238.93 280.74 243.14 275.42 246.19C270.1 249.24 264.11 250.77 257.44 250.77C252.51 250.77 248.16 249.72 244.38 247.62ZM270.25 236.74C273.47 234.61 275.96 231.74 277.73 228.13C279.49 224.52 280.38 220.58 280.38 216.33C280.38 211.74 279.09 208.13 276.52 205.49C273.94 202.86 270.33 201.54 265.68 201.54C261.54 201.54 257.85 202.6 254.63 204.73C251.41 206.86 248.92 209.72 247.15 213.3C245.39 216.88 244.5 220.8 244.5 225.06C244.5 229.65 245.77 233.28 248.32 235.94C250.87 238.6 254.46 239.93 259.11 239.93C263.31 239.93 267.02 238.87 270.24 236.74H270.25Z" fill="white"/>
<path d="M343.96 195.62C347.04 198.34 348.58 201.88 348.58 206.25C348.58 207.31 348.5 208.41 348.33 209.53C347.66 213.34 345.94 216.8 343.16 219.9C340.39 223.01 336.68 225.18 332.03 226.41L341.86 250.18H328.17L319.43 227.33H313.8L309.77 250.18H297.93L308.35 191.55H330.36C336.35 191.55 340.89 192.91 343.97 195.62H343.96ZM336.4 207.76C336.4 205.63 335.73 203.98 334.38 202.8C333.03 201.62 330.99 201.04 328.25 201.04H318.42L315.31 218.6H325.14C328.28 218.6 330.78 217.82 332.66 216.25C334.54 214.68 335.73 212.53 336.23 209.78C336.34 208.77 336.4 208.1 336.4 207.76Z" fill="white"/>
<path d="M404.02 250.18H392.18L372.78 209.94L365.64 250.18H353.8L364.22 191.46H375.98L395.47 231.78L402.61 191.46H414.37L404.04 250.18H404.02Z" fill="white"/>
<path d="M439.71 191.54L429.38 250.17H417.54L427.96 191.54H439.72H439.71Z" fill="white"/>
<path d="M450.68 246.77C446.9 244.11 445.01 240.37 445.01 235.56C445.01 235.06 445.06 234.3 445.18 233.29H457.19C456.97 235.64 457.6 237.57 459.08 239.09C460.56 240.6 462.73 241.36 465.59 241.36C468.45 241.36 470.7 240.76 472.35 239.55C474 238.35 474.83 236.62 474.83 234.38C474.83 232.31 473.98 230.66 472.27 229.42C470.56 228.19 467.89 226.82 464.25 225.3C460.89 223.9 458.16 222.61 456.06 221.44C453.96 220.26 452.17 218.63 450.68 216.53C449.2 214.43 448.45 211.78 448.45 208.59C448.45 204.95 449.39 201.79 451.26 199.1C453.14 196.41 455.71 194.34 458.99 192.88C462.27 191.42 466 190.7 470.2 190.7C474.4 190.7 477.94 191.39 480.99 192.76C484.04 194.13 486.34 196.08 487.88 198.6C489.42 201.12 490.08 204.06 489.85 207.42H477.33L477.41 206.5C477.41 204.65 476.72 203.14 475.35 201.96C473.98 200.78 472.06 200.2 469.6 200.2C466.97 200.2 464.84 200.82 463.22 202.05C461.6 203.28 460.78 204.96 460.78 207.09C460.78 208.49 461.24 209.71 462.17 210.74C463.09 211.78 464.23 212.67 465.57 213.43C466.91 214.19 468.85 215.15 471.37 216.33C474.67 217.79 477.39 219.16 479.52 220.45C481.65 221.74 483.47 223.45 484.98 225.57C486.49 227.7 487.25 230.3 487.25 233.38C487.25 236.74 486.34 239.74 484.52 242.37C482.7 245 480.12 247.06 476.79 248.54C473.46 250.02 469.58 250.77 465.16 250.77C459.28 250.77 454.45 249.44 450.67 246.78L450.68 246.77Z" fill="white"/>
<path d="M510.57 247.62C506.79 245.52 503.86 242.61 501.79 238.88C499.72 235.16 498.68 230.89 498.68 226.07C498.68 219.35 500.18 213.3 503.17 207.93C506.17 202.55 510.31 198.34 515.6 195.29C520.89 192.24 526.84 190.71 533.45 190.71C538.43 190.71 542.82 191.75 546.6 193.82C550.38 195.89 553.31 198.79 555.38 202.51C557.45 206.23 558.49 210.48 558.49 215.24C558.49 222.07 557.01 228.18 554.04 233.55C551.07 238.93 546.93 243.14 541.61 246.19C536.29 249.24 530.3 250.77 523.63 250.77C518.7 250.77 514.35 249.72 510.57 247.62ZM536.44 236.74C539.66 234.61 542.15 231.74 543.92 228.13C545.68 224.52 546.57 220.58 546.57 216.33C546.57 211.74 545.28 208.13 542.71 205.49C540.13 202.86 536.52 201.54 531.87 201.54C527.73 201.54 524.04 202.6 520.82 204.73C517.6 206.86 515.11 209.72 513.34 213.3C511.58 216.88 510.69 220.8 510.69 225.06C510.69 229.65 511.96 233.28 514.51 235.94C517.06 238.6 520.65 239.93 525.3 239.93C529.5 239.93 533.21 238.87 536.43 236.74H536.44Z" fill="white"/>
<path d="M610.74 191.54L609.06 200.78H584.7L582.01 216.15H600.66L599.06 225.22H580.33L575.96 250.17H564.12L574.54 191.54H610.74Z" fill="white"/>
<path d="M660.97 191.54L659.29 200.78H643.75L635.01 250.17H623.17L631.91 200.78H616.29L617.97 191.54H660.98H660.97Z" fill="white"/>
</svg>
