<svg width="661" height="330" viewBox="0 0 661 330" fill="none" xmlns="http://www.w3.org/2000/svg">
<path d="M67.71 153.9C130.62 210.33 193.34 225.75 146.25 329.98C146.25 329.98 217.59 255.07 194.41 206.91C171.22 158.75 23.18 110.6 0 0.0100098C0 0.0100098 4.79999 97.46 67.71 153.89V153.9Z" fill="#F49422"/>
<path d="M296.08 165L296.05 164.98L272.28 154.38C252.28 145.45 228.66 152.78 217.5 171.64C211.53 181.71 205.92 195.03 202.18 212.48C201.4 209.81 200.47 207.17 199.23 204.6C190.09 185.61 163.92 167.38 133.6 146.26C128.62 142.79 123.5 139.21 118.34 135.55L123.07 128.44C123.15 128.32 123.22 128.19 123.3 128.06C125.29 124.93 127.44 121.9 129.65 118.93C133.95 113.16 138.57 107.61 143.5 102.37C149.54 95.9401 156.08 89.9501 163.24 84.7901C170.56 79.5401 178.61 75.1101 187.31 72.6301C196.06 70.1401 205.33 69.8401 214.13 72.3001C220.64 74.1201 226.7 77.3401 232.12 81.3601C238.71 86.2401 244.99 92.3901 249.92 98.9401C255.08 105.79 258.94 113.49 263.3 120.85C269.96 132.11 278.18 142.07 286.2 152.35C289.49 156.57 292.78 160.78 296.08 165Z" fill="#4E525B"/>
<path d="M244.38 247.62C240.6 245.52 237.67 242.61 235.6 238.88C233.53 235.16 232.49 230.89 232.49 226.07C232.49 219.35 233.99 213.3 236.98 207.93C239.98 202.55 244.12 198.34 249.41 195.29C254.7 192.24 260.65 190.71 267.26 190.71C272.24 190.71 276.63 191.75 280.41 193.82C284.19 195.89 287.12 198.79 289.19 202.51C291.26 206.23 292.3 210.48 292.3 215.24C292.3 222.07 290.82 228.18 287.85 233.55C284.88 238.93 280.74 243.14 275.42 246.19C270.1 249.24 264.11 250.77 257.44 250.77C252.51 250.77 248.16 249.72 244.38 247.62ZM270.25 236.74C273.47 234.61 275.96 231.74 277.73 228.13C279.49 224.52 280.38 220.58 280.38 216.33C280.38 211.74 279.09 208.13 276.52 205.49C273.94 202.86 270.33 201.54 265.68 201.54C261.54 201.54 257.85 202.6 254.63 204.73C251.41 206.86 248.92 209.72 247.15 213.3C245.39 216.88 244.5 220.8 244.5 225.06C244.5 229.65 245.77 233.28 248.32 235.94C250.87 238.6 254.46 239.93 259.11 239.93C263.31 239.93 267.02 238.87 270.24 236.74H270.25Z" fill="#444545"/>
<path d="M343.96 195.62C347.04 198.34 348.58 201.88 348.58 206.25C348.58 207.31 348.5 208.41 348.33 209.53C347.66 213.34 345.94 216.8 343.16 219.9C340.39 223.01 336.68 225.18 332.03 226.41L341.86 250.18H328.17L319.43 227.33H313.8L309.77 250.18H297.93L308.35 191.55H330.36C336.35 191.55 340.89 192.91 343.97 195.62H343.96ZM336.4 207.76C336.4 205.63 335.73 203.98 334.38 202.8C333.03 201.62 330.99 201.04 328.25 201.04H318.42L315.31 218.6H325.14C328.28 218.6 330.78 217.82 332.66 216.25C334.54 214.68 335.73 212.53 336.23 209.78C336.34 208.77 336.4 208.1 336.4 207.76Z" fill="#444545"/>
<path d="M404.02 250.18H392.18L372.78 209.94L365.64 250.18H353.8L364.22 191.46H375.98L395.47 231.78L402.61 191.46H414.37L404.04 250.18H404.02Z" fill="#444545"/>
<path d="M439.71 191.54L429.38 250.17H417.54L427.96 191.54H439.72H439.71Z" fill="#444545"/>
<path d="M450.68 246.77C446.9 244.11 445.01 240.37 445.01 235.56C445.01 235.06 445.06 234.3 445.18 233.29H457.19C456.97 235.64 457.6 237.57 459.08 239.09C460.56 240.6 462.73 241.36 465.59 241.36C468.45 241.36 470.7 240.76 472.35 239.55C474 238.35 474.83 236.62 474.83 234.38C474.83 232.31 473.98 230.66 472.27 229.42C470.56 228.19 467.89 226.82 464.25 225.3C460.89 223.9 458.16 222.61 456.06 221.44C453.96 220.26 452.17 218.63 450.68 216.53C449.2 214.43 448.45 211.78 448.45 208.59C448.45 204.95 449.39 201.79 451.26 199.1C453.14 196.41 455.71 194.34 458.99 192.88C462.27 191.42 466 190.7 470.2 190.7C474.4 190.7 477.94 191.39 480.99 192.76C484.04 194.13 486.34 196.08 487.88 198.6C489.42 201.12 490.08 204.06 489.85 207.42H477.33L477.41 206.5C477.41 204.65 476.72 203.14 475.35 201.96C473.98 200.78 472.06 200.2 469.6 200.2C466.97 200.2 464.84 200.82 463.22 202.05C461.6 203.28 460.78 204.96 460.78 207.09C460.78 208.49 461.24 209.71 462.17 210.74C463.09 211.78 464.23 212.67 465.57 213.43C466.91 214.19 468.85 215.15 471.37 216.33C474.67 217.79 477.39 219.16 479.52 220.45C481.65 221.74 483.47 223.45 484.98 225.57C486.49 227.7 487.25 230.3 487.25 233.38C487.25 236.74 486.34 239.74 484.52 242.37C482.7 245 480.12 247.06 476.79 248.54C473.46 250.02 469.58 250.77 465.16 250.77C459.28 250.77 454.45 249.44 450.67 246.78L450.68 246.77Z" fill="#444545"/>
<path d="M510.57 247.62C506.79 245.52 503.86 242.61 501.79 238.88C499.72 235.16 498.68 230.89 498.68 226.07C498.68 219.35 500.18 213.3 503.17 207.93C506.17 202.55 510.31 198.34 515.6 195.29C520.89 192.24 526.84 190.71 533.45 190.71C538.43 190.71 542.82 191.75 546.6 193.82C550.38 195.89 553.31 198.79 555.38 202.51C557.45 206.23 558.49 210.48 558.49 215.24C558.49 222.07 557.01 228.18 554.04 233.55C551.07 238.93 546.93 243.14 541.61 246.19C536.29 249.24 530.3 250.77 523.63 250.77C518.7 250.77 514.35 249.72 510.57 247.62ZM536.44 236.74C539.66 234.61 542.15 231.74 543.92 228.13C545.68 224.52 546.57 220.58 546.57 216.33C546.57 211.74 545.28 208.13 542.71 205.49C540.13 202.86 536.52 201.54 531.87 201.54C527.73 201.54 524.04 202.6 520.82 204.73C517.6 206.86 515.11 209.72 513.34 213.3C511.58 216.88 510.69 220.8 510.69 225.06C510.69 229.65 511.96 233.28 514.51 235.94C517.06 238.6 520.65 239.93 525.3 239.93C529.5 239.93 533.21 238.87 536.43 236.74H536.44Z" fill="#444545"/>
<path d="M610.74 191.54L609.06 200.78H584.7L582.01 216.15H600.66L599.06 225.22H580.33L575.96 250.17H564.12L574.54 191.54H610.74Z" fill="#444545"/>
<path d="M660.97 191.54L659.29 200.78H643.75L635.01 250.17H623.17L631.91 200.78H616.29L617.97 191.54H660.98H660.97Z" fill="#444545"/>
<path d="M270.31 270.55L258.61 295.64H254.94L252.67 275.44L243.09 295.64L239.42 295.68L236.83 270.55H240.36L242.09 291.75L251.85 270.55H255.56L257.58 291.68L266.8 270.55H270.33H270.31Z" fill="#888989"/>
<path d="M287.28 276.54C288.49 277.18 289.41 278.06 290.05 279.2C290.69 280.34 291.01 281.64 291.01 283.11C291.01 283.61 290.95 284.23 290.83 284.95C290.73 285.57 290.58 286.22 290.36 286.89H274.59C274.54 287.37 274.52 287.72 274.52 287.93C274.52 289.59 275.02 290.88 276.01 291.8C277 292.72 278.31 293.19 279.91 293.19C281.33 293.19 282.57 292.86 283.64 292.2C284.71 291.54 285.52 290.66 286.07 289.55H289.6C288.73 291.45 287.41 292.99 285.62 294.18C283.83 295.37 281.76 295.96 279.41 295.96C276.94 295.96 274.95 295.25 273.45 293.82C271.95 292.39 271.2 290.44 271.2 287.97C271.2 287.27 271.27 286.53 271.42 285.74C271.78 283.7 272.51 281.91 273.62 280.38C274.73 278.85 276.08 277.66 277.71 276.83C279.33 276 281.09 275.59 282.98 275.59C284.64 275.59 286.07 275.91 287.28 276.54ZM287.62 283.18C287.62 281.64 287.13 280.46 286.16 279.62C285.19 278.78 283.92 278.36 282.36 278.36C280.68 278.36 279.15 278.91 277.79 280C276.43 281.09 275.5 282.6 275.02 284.52H287.51C287.58 284.04 287.62 283.6 287.62 283.19V283.18Z" fill="#888989"/>
<path d="M338.98 277.19C340.19 278.28 340.8 279.87 340.8 281.96C340.8 282.73 340.74 283.41 340.62 284.01L338.57 295.64H335.33L337.31 284.48C337.41 283.98 337.45 283.44 337.45 282.86C337.45 281.4 337.06 280.29 336.28 279.53C335.5 278.77 334.4 278.4 332.99 278.4C331.36 278.4 329.96 278.9 328.79 279.89C327.62 280.88 326.83 282.32 326.4 284.19L324.35 295.64H321.11L323.09 284.48C323.19 283.93 323.23 283.38 323.23 282.82C323.23 281.38 322.84 280.28 322.06 279.53C321.28 278.77 320.18 278.4 318.77 278.4C317.06 278.4 315.61 278.95 314.41 280.04C313.21 281.13 312.43 282.71 312.07 284.77V284.7L310.12 295.64H306.84L310.33 275.91H313.61L313.11 278.75C313.93 277.72 314.93 276.93 316.13 276.37C317.33 275.82 318.59 275.54 319.91 275.54C321.57 275.54 322.96 275.91 324.1 276.66C325.24 277.41 325.99 278.5 326.35 279.94C327.17 278.55 328.28 277.47 329.68 276.7C331.08 275.93 332.57 275.55 334.13 275.55C336.15 275.55 337.76 276.1 338.97 277.19H338.98Z" fill="#888989"/>
<path d="M348.05 280.39C349.14 278.87 350.47 277.68 352.05 276.84C353.62 276 355.29 275.58 357.07 275.58C358.85 275.58 360.23 275.95 361.35 276.7C362.48 277.44 363.26 278.38 363.69 279.51L364.34 275.91H367.65L364.16 295.64H360.85L361.53 291.97C360.67 293.12 359.53 294.08 358.11 294.83C356.69 295.59 355.14 295.96 353.43 295.96C351.89 295.96 350.54 295.63 349.36 294.97C348.18 294.31 347.27 293.37 346.63 292.14C345.98 290.92 345.66 289.5 345.66 287.89C345.66 287.17 345.73 286.44 345.88 285.69C346.24 283.67 346.96 281.9 348.06 280.38L348.05 280.39ZM362.76 284.12C362.76 282.37 362.24 280.98 361.19 279.96C360.15 278.94 358.82 278.43 357.21 278.43C355.99 278.43 354.82 278.72 353.7 279.29C352.58 279.87 351.63 280.71 350.84 281.81C350.05 282.91 349.52 284.21 349.26 285.7C349.16 286.2 349.12 286.76 349.12 287.36C349.12 289.14 349.64 290.53 350.67 291.55C351.7 292.57 353.02 293.08 354.63 293.08C355.85 293.08 357.02 292.79 358.14 292.2C359.26 291.61 360.21 290.76 361.02 289.64C361.83 288.52 362.36 287.22 362.62 285.73C362.72 285.23 362.76 284.69 362.76 284.11V284.12Z" fill="#888989"/>
<path d="M379.07 285.77L386.63 295.63H382.17L375.98 286.95L374.43 295.63H371.15L375.87 268.99H379.15L376.38 284.61L385.52 275.9H390.06L379.08 285.76L379.07 285.77Z" fill="#888989"/>
<path d="M407.49 276.54C408.7 277.18 409.62 278.06 410.26 279.2C410.9 280.34 411.22 281.64 411.22 283.11C411.22 283.61 411.16 284.23 411.04 284.95C410.94 285.57 410.79 286.22 410.57 286.89H394.8C394.75 287.37 394.73 287.72 394.73 287.93C394.73 289.59 395.23 290.88 396.22 291.8C397.21 292.72 398.52 293.19 400.12 293.19C401.54 293.19 402.78 292.86 403.85 292.2C404.92 291.54 405.73 290.66 406.28 289.55H409.81C408.94 291.45 407.62 292.99 405.83 294.18C404.04 295.37 401.97 295.96 399.62 295.96C397.15 295.96 395.16 295.25 393.66 293.82C392.16 292.39 391.41 290.44 391.41 287.97C391.41 287.27 391.48 286.53 391.63 285.74C391.99 283.7 392.72 281.91 393.83 280.38C394.94 278.85 396.29 277.66 397.92 276.83C399.54 276 401.3 275.59 403.19 275.59C404.85 275.59 406.28 275.91 407.49 276.54ZM407.83 283.18C407.83 281.64 407.34 280.46 406.37 279.62C405.4 278.78 404.13 278.36 402.57 278.36C400.89 278.36 399.36 278.91 398 280C396.64 281.09 395.71 282.6 395.23 284.52H407.72C407.79 284.04 407.83 283.6 407.83 283.19V283.18Z" fill="#888989"/>
<path d="M433.82 275.91L430.33 295.64H427.05L430.54 275.91H433.82ZM431.46 272.18C431.11 271.83 430.94 271.39 430.94 270.87C430.94 270.15 431.2 269.53 431.73 269.02C432.26 268.5 432.87 268.25 433.57 268.25C434.12 268.25 434.57 268.42 434.9 268.75C435.23 269.08 435.4 269.53 435.4 270.08C435.4 270.8 435.14 271.42 434.61 271.93C434.08 272.45 433.47 272.7 432.77 272.7C432.24 272.7 431.8 272.53 431.46 272.18Z" fill="#888989"/>
<path d="M442.32 290.24C442.25 290.6 442.21 290.91 442.21 291.18C442.21 291.78 442.4 292.21 442.77 292.48C443.14 292.74 443.75 292.88 444.59 292.88H447L446.5 295.65H443.55C441.99 295.65 440.82 295.35 440.04 294.75C439.26 294.15 438.87 293.17 438.87 291.8C438.87 291.27 438.92 290.76 439.01 290.25L441.06 278.62H438.54L439.01 275.92H441.57L442.43 270.95H445.74L444.88 275.92H449.99L449.52 278.62H444.37L442.32 290.25V290.24Z" fill="#888989"/>
<path d="M480.42 276.54C481.63 277.18 482.56 278.06 483.19 279.2C483.82 280.34 484.14 281.64 484.14 283.11C484.14 283.61 484.08 284.23 483.96 284.95C483.86 285.57 483.71 286.22 483.49 286.89H467.72C467.67 287.37 467.65 287.72 467.65 287.93C467.65 289.59 468.15 290.88 469.14 291.8C470.13 292.72 471.44 293.19 473.05 293.19C474.47 293.19 475.71 292.86 476.78 292.2C477.85 291.54 478.66 290.66 479.21 289.55H482.74C481.88 291.45 480.55 292.99 478.76 294.18C476.97 295.37 474.9 295.96 472.55 295.96C470.08 295.96 468.09 295.25 466.59 293.82C465.09 292.39 464.34 290.44 464.34 287.97C464.34 287.27 464.41 286.53 464.56 285.74C464.92 283.7 465.65 281.91 466.76 280.38C467.87 278.85 469.23 277.66 470.85 276.83C472.47 276 474.23 275.59 476.13 275.59C477.79 275.59 479.22 275.91 480.43 276.54H480.42ZM480.76 283.18C480.76 281.64 480.28 280.46 479.3 279.62C478.32 278.78 477.06 278.36 475.5 278.36C473.82 278.36 472.3 278.91 470.93 280C469.56 281.09 468.64 282.6 468.16 284.52H480.65C480.72 284.04 480.76 283.6 480.76 283.19V283.18Z" fill="#888989"/>
<path d="M490.5 280.39C491.59 278.87 492.92 277.68 494.5 276.84C496.07 276 497.75 275.58 499.52 275.58C501.29 275.58 502.68 275.95 503.81 276.7C504.94 277.44 505.72 278.38 506.15 279.51L506.8 275.91H510.11L506.62 295.64H503.31L503.99 291.97C503.13 293.12 501.99 294.08 500.57 294.83C499.15 295.59 497.59 295.96 495.89 295.96C494.35 295.96 493 295.63 491.82 294.97C490.64 294.31 489.73 293.37 489.08 292.14C488.43 290.92 488.11 289.5 488.11 287.89C488.11 287.17 488.18 286.44 488.33 285.69C488.69 283.67 489.42 281.9 490.51 280.38L490.5 280.39ZM505.21 284.12C505.21 282.37 504.69 280.98 503.64 279.96C502.6 278.94 501.27 278.43 499.66 278.43C498.44 278.43 497.27 278.72 496.15 279.29C495.03 279.86 494.08 280.71 493.29 281.81C492.5 282.91 491.97 284.21 491.71 285.7C491.61 286.2 491.57 286.76 491.57 287.36C491.57 289.14 492.09 290.53 493.12 291.55C494.15 292.57 495.47 293.08 497.08 293.08C498.3 293.08 499.47 292.79 500.59 292.2C501.71 291.61 502.67 290.76 503.47 289.64C504.27 288.52 504.81 287.22 505.07 285.73C505.17 285.23 505.21 284.69 505.21 284.11V284.12Z" fill="#888989"/>
<path d="M515.47 294.49C514.15 293.51 513.49 292.19 513.49 290.53C513.49 290.22 513.5 289.99 513.53 289.85H516.74C516.64 290.88 516.95 291.72 517.66 292.37C518.37 293.02 519.39 293.34 520.74 293.34C522.09 293.34 523.17 293.08 524 292.57C524.83 292.05 525.24 291.33 525.24 290.39C525.24 289.6 524.9 288.97 524.23 288.52C523.56 288.07 522.53 287.57 521.13 287.04C519.91 286.58 518.9 286.15 518.11 285.74C517.32 285.33 516.65 284.76 516.09 284.03C515.54 283.3 515.26 282.37 515.26 281.24C515.26 280.11 515.58 279.15 516.21 278.29C516.85 277.43 517.73 276.76 518.87 276.29C520.01 275.82 521.31 275.59 522.78 275.59C524.8 275.59 526.45 276.09 527.75 277.1C529.04 278.11 529.69 279.43 529.69 281.06C529.69 281.37 529.68 281.61 529.65 281.78H526.52L526.56 281.35C526.56 280.39 526.19 279.63 525.46 279.06C524.73 278.5 523.76 278.21 522.56 278.21C521.36 278.21 520.42 278.47 519.66 279C518.9 279.53 518.53 280.24 518.53 281.12C518.53 281.96 518.88 282.62 519.57 283.1C520.27 283.58 521.35 284.11 522.81 284.68C524.03 285.16 525.02 285.6 525.76 285.99C526.5 286.39 527.14 286.93 527.67 287.63C528.2 288.33 528.46 289.2 528.46 290.26C528.46 291.41 528.12 292.42 527.43 293.28C526.74 294.14 525.8 294.8 524.6 295.26C523.4 295.72 522.05 295.94 520.53 295.94C518.47 295.94 516.77 295.45 515.45 294.46L515.47 294.49Z" fill="#888989"/>
<path d="M540.6 275.91L537.11 295.64H533.83L537.32 275.91H540.6ZM538.24 272.18C537.89 271.83 537.72 271.39 537.72 270.87C537.72 270.15 537.98 269.53 538.51 269.02C539.04 268.5 539.65 268.25 540.35 268.25C540.9 268.25 541.34 268.42 541.68 268.75C542.02 269.09 542.18 269.53 542.18 270.08C542.18 270.8 541.91 271.42 541.39 271.93C540.86 272.45 540.25 272.7 539.55 272.7C539.02 272.7 538.58 272.53 538.24 272.18Z" fill="#888989"/>
<path d="M560.48 276.54C561.69 277.18 562.62 278.06 563.25 279.2C563.88 280.34 564.2 281.64 564.2 283.11C564.2 283.61 564.14 284.23 564.02 284.95C563.92 285.57 563.77 286.22 563.55 286.89H547.78C547.73 287.37 547.71 287.72 547.71 287.93C547.71 289.59 548.21 290.88 549.2 291.8C550.19 292.72 551.5 293.19 553.11 293.19C554.53 293.19 555.77 292.86 556.84 292.2C557.91 291.54 558.72 290.66 559.27 289.55H562.8C561.94 291.45 560.61 292.99 558.82 294.18C557.03 295.37 554.96 295.96 552.61 295.96C550.14 295.96 548.15 295.25 546.65 293.82C545.15 292.39 544.4 290.44 544.4 287.97C544.4 287.27 544.47 286.53 544.62 285.74C544.98 283.7 545.71 281.91 546.82 280.38C547.93 278.85 549.29 277.66 550.91 276.83C552.53 276 554.29 275.59 556.19 275.59C557.85 275.59 559.28 275.91 560.49 276.54H560.48ZM560.82 283.18C560.82 281.64 560.34 280.46 559.36 279.62C558.38 278.78 557.12 278.36 555.56 278.36C553.88 278.36 552.36 278.91 550.99 280C549.62 281.09 548.7 282.6 548.22 284.52H560.71C560.78 284.04 560.82 283.6 560.82 283.19V283.18Z" fill="#888989"/>
<path d="M576.99 276.63C578.19 275.91 579.56 275.55 581.1 275.55L580.49 278.93H579.63C577.92 278.93 576.5 279.39 575.36 280.3C574.22 281.21 573.46 282.75 573.07 284.91L571.16 295.64H567.88L571.37 275.91H574.65L574 279.65C574.79 278.35 575.79 277.35 576.99 276.63Z" fill="#888989"/>
</svg>
